# Blender v3.3.0 OBJ File: 'Room3.blend'
# www.blender.org
mtllib Room3.mtl
o jorge.001_Plane.001
v -44.815262 0.000000 8.969506
v -16.463448 0.000000 8.969506
v -44.815262 0.000000 -8.969506
v -16.463448 0.000000 -8.969506
v -44.308704 0.000000 8.648993
v -16.970005 0.000000 8.648993
v -44.308704 0.000000 -8.648993
v -16.970005 0.000000 -8.648993
v -44.815262 5.986959 -8.969506
v -44.815262 5.986959 8.969506
v -16.463448 5.986959 8.969506
v -16.463448 5.986959 -8.969506
v -44.308704 5.986959 -8.648993
v -44.308704 5.986959 8.648993
v -16.970005 5.986959 8.648993
v -16.970005 5.986959 -8.648993
v -44.143517 0.130890 -8.684361
v -33.324879 0.094209 8.969506
v -27.953833 0.113488 8.969506
v -27.953833 4.307999 8.969506
v -33.324879 4.307999 8.969506
v -33.324879 0.094209 8.648993
v -27.953833 0.113488 8.648993
v -33.324879 4.307999 8.648993
v -27.953833 4.307999 8.648993
v -33.324879 0.107769 8.969506
v -27.953833 0.121177 8.969506
v -33.324879 0.107769 8.648993
v -27.953833 0.121177 8.648993
v -33.324879 0.078212 8.969506
v -27.953833 0.102409 8.969506
v -33.324879 0.078212 8.648993
v -27.953833 0.102409 8.648993
v -44.308704 0.047320 2.679888
v -44.308704 0.047320 -2.649318
v -44.308704 4.185476 2.679888
v -44.308704 4.185476 -2.649318
v -44.815262 0.047320 2.682027
v -44.815262 0.047320 -2.647179
v -44.815262 4.185476 2.682027
v -44.815262 4.185476 -2.647179
v -44.201027 0.085321 -2.649773
v -44.248985 0.047320 -2.649571
vt 0.000000 0.345075
vt 0.000000 0.000000
vt 0.000000 1.000000
vt 0.000000 0.653158
vt 0.000000 1.000000
vt 0.000000 0.000000
vt 0.000000 0.345075
vt 0.000000 0.653158
vt 1.000000 1.000000
vt 1.000000 0.000000
vt 1.000000 0.000000
vt 1.000000 1.000000
vt 0.594721 0.000000
vt 1.000000 0.000000
vt 0.000000 0.000000
vt 0.405279 0.000000
vt 0.000000 0.000000
vt 1.000000 0.000000
vt 0.594721 0.000000
vt 0.405279 0.000000
vt 1.000000 1.000000
vt 0.000000 1.000000
vt 0.000000 1.000000
vt 1.000000 1.000000
vt 0.000000 0.350492
vt 0.000000 0.647566
vt 0.000000 0.647565
vt 0.000000 0.350492
vt 0.401768 0.000000
vt 0.598231 0.000000
vt 0.401768 0.000000
vt 0.598232 0.000000
vt 0.000000 1.000000
vt 0.375000 0.094048
vt 0.625000 0.094048
vt 0.625000 0.193582
vt 0.375000 0.193582
vt 0.625000 0.556418
vt 0.625000 0.655952
vt 0.375000 0.655952
vt 0.375000 0.556418
vt 0.125000 0.655952
vt 0.125000 0.556418
vt 0.401768 0.000000
vt 0.598232 0.000000
vt 0.625000 0.655952
vt 0.625000 0.556418
vt 0.625000 0.556418
vt 0.625000 0.655952
vt 0.594721 0.000000
vt 0.405279 0.000000
vt 0.625000 0.094048
vt 0.625000 0.193582
vt 0.875000 0.556418
vt 0.875000 0.655952
vt 0.594721 0.000000
vt 0.405279 0.000000
vt 0.625000 0.094048
vt 0.625000 0.193582
vt 0.401768 0.000000
vt 0.598232 0.000000
vt 0.000000 0.652433
vt 0.000000 0.651851
vt 0.375000 0.203471
vt 0.375000 0.046155
vt 0.625000 0.046155
vt 0.625000 0.203471
vt 0.625000 0.553527
vt 0.625000 0.710823
vt 0.375000 0.710823
vt 0.375000 0.553527
vt 0.125000 0.703840
vt 0.125000 0.546529
vt 0.875000 0.546529
vt 0.875000 0.703840
vn 1.0000 0.0000 0.0000
vn -1.0000 0.0000 0.0000
vn 0.0000 0.0000 1.0000
vn 0.0000 0.0000 -1.0000
vn 0.0000 1.0000 -0.0000
vn 0.0000 -1.0000 0.0000
vn 0.0000 -0.2609 -0.9654
vn -0.0045 1.0000 0.0000
vn -0.6210 0.7838 -0.0000
vn -0.0042 0.0000 -1.0000
vn 0.0042 0.0000 1.0000
usemtl Material.004
s off
f 34/1/1 5/2/1 7/3/1 35/4/1
f 35/4/1 7/3/1 13/5/1 14/6/1 5/2/1 34/1/1 36/7/1 37/8/1
f 8/9/2 6/10/2 15/11/2 16/12/2
f 20/13/3 11/14/3 10/15/3 21/16/3
f 21/16/3 10/15/3 1/17/3 2/18/3 11/14/3 20/13/3 19/19/3 18/20/3
f 4/21/4 3/22/4 9/23/4 12/24/4
f 2/18/1 4/21/1 12/24/1 11/14/1
f 38/25/2 1/17/2 10/15/2 9/23/2 3/22/2 39/26/2 41/27/2 40/28/2
f 39/26/2 3/22/2 1/17/2 38/25/2
f 7/3/3 8/9/3 16/12/3 13/5/3
f 24/29/4 14/6/4 15/11/4 25/30/4
f 25/30/4 15/11/4 6/10/4 5/2/4 14/6/4 24/29/4 22/31/4 23/32/4
f 12/24/5 9/23/5 13/5/5 16/12/5
f 10/15/5 11/14/5 15/11/5 14/6/5
f 11/14/5 12/24/5 16/12/5 15/11/5
f 9/23/5 10/15/5 14/6/5 13/5/5
f 1/17/6 3/22/6 4/21/6 2/18/6
f 8/9/7 7/3/7 17/33/7
f 21/34/1 18/35/1 22/36/1 24/37/1
f 23/38/2 19/39/2 20/40/2 25/41/2
f 20/40/6 21/42/6 24/43/6 25/41/6
f 23/32/4 22/31/4 28/44/4 29/45/4
f 27/46/2 29/47/2 33/48/2 31/49/2
f 18/20/3 19/19/3 27/50/3 26/51/3
f 19/39/1 23/38/1 29/47/1 27/46/1
f 22/36/2 18/35/2 26/52/2 28/53/2
f 32/54/8 30/55/8 31/49/8 33/48/8
f 26/51/4 27/50/4 31/56/4 30/57/4
f 28/53/1 26/52/1 30/58/1 32/59/1
f 29/45/3 28/44/3 32/60/3 33/61/3
f 7/3/9 5/2/9 43/62/9 42/63/9 17/33/9
usemtl Material.001
f 40/64/10 36/65/10 34/66/10 38/67/10
f 39/68/11 35/69/11 37/70/11 41/71/11
f 41/71/6 37/70/6 36/72/6 40/73/6
f 38/74/5 34/75/5 35/69/5 39/68/5
o Cube.001_Cube.003
v -44.160065 4.185476 2.679260
v -44.160065 0.047320 2.679260
v -44.965092 4.185476 2.682660
v -44.965092 0.047320 2.682660
v -44.182568 4.185476 -2.649851
v -44.182568 0.047320 -2.649851
v -44.987595 4.185476 -2.646452
v -44.987595 0.047320 -2.646452
vt 0.375000 0.000000
vt 0.375000 0.250000
vt 0.625000 0.250000
vt 0.625000 0.000000
vt 0.375000 0.500000
vt 0.625000 0.500000
vt 0.375000 0.750000
vt 0.625000 0.750000
vt 0.375000 1.000000
vt 0.625000 1.000000
vt 0.125000 0.500000
vt 0.125000 0.750000
vt 0.875000 0.750000
vt 0.875000 0.500000
vn 0.0042 0.0000 1.0000
vn -1.0000 0.0000 0.0042
vn -0.0042 0.0000 -1.0000
vn 1.0000 0.0000 -0.0042
vn 0.0000 1.0000 0.0000
vn 0.0000 -1.0000 0.0000
usemtl Material.001
s off
f 44/76/12 46/77/12 47/78/12 45/79/12
f 46/77/13 50/80/13 51/81/13 47/78/13
f 50/80/14 48/82/14 49/83/14 51/81/14
f 48/82/15 44/84/15 45/85/15 49/83/15
f 46/86/16 44/87/16 48/82/16 50/80/16
f 51/81/17 49/83/17 45/88/17 47/89/17
