# Blender 3.3.0
# www.blender.org
mtllib StartRoom.mtl
o jorge
v -10.495597 0.000000 8.969506
v 17.856213 0.000000 8.969506
v -10.495597 0.000000 -8.969506
v 17.856213 0.000000 -8.969506
v -9.989041 0.000000 8.648993
v 17.349657 0.000000 8.648993
v -9.989041 0.000000 -8.648993
v 17.349657 0.000000 -8.648993
v -10.495597 5.986959 -8.969506
v -10.495597 5.986959 8.969506
v 17.856213 5.986959 8.969506
v 17.856213 5.986959 -8.969506
v -9.989041 5.986959 -8.648993
v -9.989041 5.986959 8.648993
v 17.349657 5.986959 8.648993
v 17.349657 5.986959 -8.648993
v -9.823853 0.130890 -8.684361
v 0.994786 0.094209 8.969506
v 6.365831 0.113488 8.969506
v 6.365831 4.307999 8.969506
v 0.994786 4.307999 8.969506
v 0.994786 0.094209 8.648993
v 6.365831 0.113488 8.648993
v 0.994786 4.307999 8.648993
v 6.365831 4.307999 8.648993
v 0.994786 0.107769 8.969506
v 6.365831 0.121177 8.969506
v 0.994786 0.107769 8.648993
v 6.365831 0.121177 8.648993
v 0.994786 0.078212 8.969506
v 6.365831 0.102409 8.969506
v 0.994786 0.078212 8.648993
v 6.365831 0.102409 8.648993
v 17.349657 0.014081 2.413661
v 17.349657 0.014081 -2.506849
v 17.349657 4.235314 2.413661
v 17.349657 4.235314 -2.506849
v 17.856213 0.014081 2.417140
v 17.856213 0.014081 -2.503370
v 17.856213 4.235314 2.417140
v 17.856213 4.235314 -2.503370
vn 1.0000 -0.0000 -0.0000
vn -1.0000 -0.0000 -0.0000
vn -0.0000 -0.0000 1.0000
vn -0.0000 -0.0000 -1.0000
vn -0.0000 1.0000 -0.0000
vn -0.0000 -1.0000 -0.0000
vn -0.0000 -0.2609 -0.9654
vn -0.0045 1.0000 -0.0000
vn -0.6210 0.7838 -0.0000
vn 0.0069 -0.0000 -1.0000
vn -0.0069 -0.0000 1.0000
vt 0.000000 0.000000
vt 1.000000 0.000000
vt 0.000000 1.000000
vt 1.000000 1.000000
vt 0.000000 0.000000
vt 1.000000 0.000000
vt 0.000000 1.000000
vt 1.000000 1.000000
vt 0.000000 1.000000
vt 0.000000 0.000000
vt 1.000000 0.000000
vt 1.000000 1.000000
vt 0.000000 1.000000
vt 0.000000 0.000000
vt 1.000000 0.000000
vt 1.000000 1.000000
vt 0.000000 1.000000
vt 0.405279 0.000000
vt 0.625000 0.094048
vt 0.594721 0.000000
vt 0.625000 0.655952
vt 0.594721 0.000000
vt 0.375000 0.655952
vt 0.405279 0.000000
vt 0.375000 0.094048
vt 0.125000 0.655952
vt 0.401768 0.000000
vt 0.625000 0.193582
vt 0.598232 0.000000
vt 0.625000 0.556418
vt 0.401768 0.000000
vt 0.375000 0.193582
vt 0.125000 0.556418
vt 0.598231 0.000000
vt 0.375000 0.556418
vt 0.405279 0.000000
vt 0.625000 0.094048
vt 0.625000 0.655952
vt 0.594721 0.000000
vt 0.625000 0.193582
vt 0.401768 0.000000
vt 0.625000 0.556418
vt 0.598232 0.000000
vt 0.875000 0.655952
vt 0.405279 0.000000
vt 0.625000 0.094048
vt 0.625000 0.655952
vt 0.594721 0.000000
vt 0.875000 0.556418
vt 0.625000 0.193582
vt 0.401768 0.000000
vt 0.625000 0.556418
vt 0.598232 0.000000
vt 1.000000 0.360466
vt 0.625000 0.169724
vt 0.875000 0.580279
vt 1.000000 0.644921
vt 0.625000 0.574385
vt 1.000000 0.360466
vt 0.375000 0.169724
vt 0.125000 0.580279
vt 1.000000 0.644921
vt 0.375000 0.574385
vt 1.000000 0.365258
vt 0.625000 0.081369
vt 0.875000 0.668633
vt 1.000000 0.639549
vt 0.625000 0.662738
vt 1.000000 0.365258
vt 0.375000 0.081369
vt 0.125000 0.668633
vt 1.000000 0.639549
vt 0.375000 0.662738
s 0
usemtl Material
f 5/5/1 7/7/1 13/13/1 14/14/1
f 34/54/2 6/6/2 15/15/2 16/16/2 8/8/2 35/57/2 37/62/2 36/59/2
f 35/57/2 8/8/2 6/6/2 34/54/2
f 20/22/3 11/11/3 10/10/3 21/24/3
f 21/24/3 10/10/3 1/1/3 2/2/3 11/11/3 20/22/3 19/20/3 18/18/3
f 4/4/4 3/3/4 9/9/4 12/12/4
f 39/67/1 4/4/1 12/12/1 11/11/1 2/2/1 38/64/1 40/69/1 41/72/1
f 38/64/1 2/2/1 4/4/1 39/67/1
f 3/3/2 1/1/2 10/10/2 9/9/2
f 7/7/3 8/8/3 16/16/3 13/13/3
f 24/31/4 14/14/4 15/15/4 25/34/4
f 25/34/4 15/15/4 6/6/4 5/5/4 14/14/4 24/31/4 22/27/4 23/29/4
f 12/12/5 9/9/5 13/13/5 16/16/5
f 10/10/5 11/11/5 15/15/5 14/14/5
f 11/11/5 12/12/5 16/16/5 15/15/5
f 9/9/5 10/10/5 14/14/5 13/13/5
f 1/1/6 3/3/6 4/4/6 2/2/6
f 8/8/7 7/7/7 17/17/7
f 21/25/1 18/19/1 22/28/1 24/32/1
f 23/30/2 19/21/2 20/23/2 25/35/2
f 20/23/6 21/26/6 24/33/6 25/35/6
f 23/29/4 22/27/4 28/41/4 29/43/4
f 27/38/2 29/42/2 33/52/2 31/47/2
f 18/18/3 19/20/3 27/39/3 26/36/3
f 19/21/1 23/30/1 29/42/1 27/38/1
f 22/28/2 18/19/2 26/37/2 28/40/2
f 32/49/8 30/44/8 31/47/8 33/52/8
f 26/36/4 27/39/4 31/48/4 30/45/4
f 28/40/1 26/37/1 30/46/1 32/50/1
f 29/43/3 28/41/3 32/51/3 33/53/3
f 7/7/9 5/5/9 17/17/9
usemtl Material.003
f 38/65/10 34/55/10 36/60/10 40/70/10
f 41/73/11 37/63/11 35/58/11 39/68/11
f 40/71/6 36/61/6 37/63/6 41/73/6
f 35/58/5 34/56/5 38/66/5 39/68/5
