# Blender 3.3.0
# www.blender.org
mtllib Room11.mtl
o Room11
v -13.869937 0.055579 9.146517
v 13.910140 0.055579 9.146517
v -13.869937 0.055579 -9.108961
v 13.910140 0.055579 -9.108961
v -13.869937 0.110592 9.146517
v 13.910140 0.110592 9.146517
v -13.869937 0.110592 -9.108961
v 13.910140 0.110592 -9.108961
v -13.481894 0.110592 -8.853962
v -13.481894 0.110592 8.891518
v 13.522098 0.110592 8.891518
v 13.522098 0.110592 -8.853962
v -17.479897 5.055578 -11.481221
v -17.479897 5.055578 11.518778
v 17.520103 5.055578 11.518778
v 17.520103 5.055578 -11.481221
v -16.991003 5.055578 -11.159949
v -16.991003 5.055578 11.197505
v 17.031208 5.055578 11.197505
v 17.031208 5.055578 -11.159949
v -13.869937 0.191892 -9.108961
v -13.869937 0.191892 9.146517
v 13.910140 0.191892 9.146517
v 13.910140 0.191892 -9.108961
v 13.595376 0.213855 3.789417
v 13.595376 0.213855 -3.676456
v 16.560232 4.391884 3.790367
v 16.560232 4.391884 -3.675506
v 13.985524 0.213855 3.789542
v 13.985524 0.213855 -3.676331
v 17.035589 4.391884 3.790520
v 17.035589 4.391884 -3.675354
vn 1.0000 -0.0000 -0.0000
vn 0.8155 0.5787 -0.0000
vn -1.0000 -0.0000 -0.0000
vn -0.0000 -0.0000 -1.0000
vn -0.0000 -0.0000 1.0000
vn -0.0000 1.0000 -0.0000
vn -0.8155 0.5787 -0.0000
vn -0.0000 -0.4325 0.9016
vn -0.0000 -0.4325 -0.9016
vn 0.8077 -0.5896 -0.0000
vn -0.0000 0.4226 0.9063
vn -0.8077 -0.5896 -0.0000
vn -0.0000 0.4226 -0.9063
vn -0.0000 -1.0000 -0.0000
vn -0.0003 -0.0000 1.0000
vn 0.0003 -0.0000 -1.0000
vt 0.000000 0.000000
vt 1.000000 0.000000
vt 0.000000 1.000000
vt 1.000000 1.000000
vt 0.000000 0.000000
vt 1.000000 0.000000
vt 0.000000 1.000000
vt 1.000000 1.000000
vt 0.000000 1.000000
vt 0.000000 0.000000
vt 1.000000 0.000000
vt 1.000000 1.000000
vt 0.000000 1.000000
vt 0.000000 0.000000
vt 1.000000 0.000000
vt 1.000000 1.000000
vt 0.000000 1.000000
vt 0.000000 0.000000
vt 1.000000 0.000000
vt 1.000000 1.000000
vt 0.000000 1.000000
vt 0.000000 0.000000
vt 1.000000 0.000000
vt 1.000000 1.000000
vt 1.000000 0.287934
vt 0.375000 0.503034
vt 1.000000 0.707826
vt 0.375000 0.250000
vt 0.125000 0.502904
vt 1.000000 0.328096
vt 0.625000 0.664796
vt 1.000000 0.668377
vt 0.625000 0.085324
vt 0.875000 0.664666
vt 1.000000 0.293857
vt 0.375000 0.524321
vt 1.000000 0.702007
vt 0.375000 0.225787
vt 0.125000 0.524190
vt 1.000000 0.332883
vt 0.625000 0.690732
vt 1.000000 0.663675
vt 0.625000 0.059398
vt 0.875000 0.690601
s 0
usemtl Material.001
f 1/1/1 3/3/1 21/21/1 22/22/1
f 10/10/2 9/9/2 17/17/2 18/18/2
f 2/2/1 4/4/1 8/8/1 6/6/1
f 3/3/3 1/1/3 5/5/3 7/7/3
f 4/4/4 3/3/4 7/7/4 8/8/4
f 1/1/5 2/2/5 6/6/5 5/5/5
f 10/10/6 11/11/6 12/12/6 9/9/6
f 25/25/7 11/11/7 19/19/7 20/20/7 12/12/7 26/27/7 28/32/7 27/30/7
f 12/12/7 11/11/7 25/25/7 26/27/7
f 5/5/8 6/6/8 15/15/8 14/14/8
f 8/8/9 7/7/9 13/13/9 16/16/9
f 16/16/6 13/13/6 17/17/6 20/20/6
f 14/14/6 15/15/6 19/19/6 18/18/6
f 15/15/6 16/16/6 20/20/6 19/19/6
f 13/13/6 14/14/6 18/18/6 17/17/6
f 29/35/10 6/6/10 8/8/10 30/37/10
f 30/37/10 8/8/10 16/16/10 15/15/10 6/6/10 29/35/10 31/40/10 32/42/10
f 9/9/11 12/12/11 20/20/11 17/17/11
f 7/7/12 5/5/12 14/14/12 13/13/12
f 11/11/13 10/10/13 18/18/13 19/19/13
f 22/22/14 21/21/14 24/24/14 23/23/14
f 3/3/5 4/4/5 24/24/5 21/21/5
f 2/2/4 1/1/4 22/22/4 23/23/4
f 4/4/3 2/2/3 23/23/3 24/24/3
usemtl 
f 32/43/15 28/33/15 26/28/15 30/38/15
f 25/26/16 27/31/16 31/41/16 29/36/16
f 26/29/6 25/26/6 29/36/6 30/39/6
f 31/41/14 27/31/14 28/34/14 32/44/14
o Piso1
v -14.022122 0.196303 9.152247
v 13.977878 0.196303 9.152247
v -14.022122 0.196303 -9.156293
v 13.977878 0.196303 -9.156293
v -14.022122 0.266727 9.152247
v 13.977878 0.266727 9.152247
v -14.022122 0.266727 -9.156293
v 13.977878 0.266727 -9.156293
vn -0.0000 -1.0000 -0.0000
vn -0.0000 1.0000 -0.0000
vn 1.0000 -0.0000 -0.0000
vn -1.0000 -0.0000 -0.0000
vn -0.0000 -0.0000 -1.0000
vn -0.0000 -0.0000 1.0000
vt 0.000000 0.000000
vt 1.000000 0.000000
vt 0.000000 1.000000
vt 1.000000 1.000000
vt 0.000000 0.000000
vt 1.000000 0.000000
vt 0.000000 1.000000
vt 1.000000 1.000000
s 0
usemtl Material.003
f 33/45/17 35/47/17 36/48/17 34/46/17
f 37/49/18 38/50/18 40/52/18 39/51/18
f 34/46/19 36/48/19 40/52/19 38/50/19
f 35/47/20 33/45/20 37/49/20 39/51/20
f 36/48/21 35/47/21 39/51/21 40/52/21
f 33/45/22 34/46/22 38/50/22 37/49/22
