# Blender 3.3.0
# www.blender.org
mtllib Room3.mtl
o Plane
v -44.726593 0.055579 8.921340
v -16.505962 0.055579 8.921340
v -44.726593 0.055579 -8.883784
v -16.505962 0.055579 -8.883784
v -44.726593 0.114799 8.921340
v -16.505962 0.114799 8.921340
v -44.726593 0.114799 -8.883784
v -16.505962 0.114799 -8.883784
vn -0.0000 -1.0000 -0.0000
vn -0.0000 1.0000 -0.0000
vn 1.0000 -0.0000 -0.0000
vn -1.0000 -0.0000 -0.0000
vn -0.0000 -0.0000 -1.0000
vn -0.0000 -0.0000 1.0000
vt 0.000000 0.000000
vt 1.000000 0.000000
vt 0.000000 1.000000
vt 1.000000 1.000000
vt 0.000000 0.000000
vt 1.000000 0.000000
vt 0.000000 1.000000
vt 1.000000 1.000000
s 0
usemtl Material.002
f 1/1/1 3/3/1 4/4/1 2/2/1
f 5/5/2 6/6/2 8/8/2 7/7/2
f 2/2/3 4/4/3 8/8/3 6/6/3
f 3/3/4 1/1/4 5/5/4 7/7/4
f 4/4/5 3/3/5 7/7/5 8/8/5
f 1/1/6 2/2/6 6/6/6 5/5/6
o jorge.001
v -44.815262 0.000000 8.969506
v -16.463448 0.000000 8.969506
v -44.815262 0.000000 -8.969506
v -16.463448 0.000000 -8.969506
v -44.308704 0.000000 8.648993
v -16.970005 0.000000 8.648993
v -44.308704 0.000000 -8.648993
v -16.970005 0.000000 -8.648993
v -44.815262 5.986959 -8.969506
v -44.815262 5.986959 8.969506
v -16.463448 5.986959 8.969506
v -16.463448 5.986959 -8.969506
v -44.308704 5.986959 -8.648993
v -44.308704 5.986959 8.648993
v -16.970005 5.986959 8.648993
v -16.970005 5.986959 -8.648993
v -44.143517 0.130890 -8.684361
v -33.324879 0.094209 8.969506
v -27.953833 0.113488 8.969506
v -27.953833 4.307999 8.969506
v -33.324879 4.307999 8.969506
v -33.324879 0.094209 8.648993
v -27.953833 0.113488 8.648993
v -33.324879 4.307999 8.648993
v -27.953833 4.307999 8.648993
v -33.324879 0.107769 8.969506
v -27.953833 0.121177 8.969506
v -33.324879 0.107769 8.648993
v -27.953833 0.121177 8.648993
v -33.324879 0.078212 8.969506
v -27.953833 0.102409 8.969506
v -33.324879 0.078212 8.648993
v -27.953833 0.102409 8.648993
v -44.308704 0.047320 2.679888
v -44.308704 0.047320 -2.649318
v -44.308704 4.185476 2.679888
v -44.308704 4.185476 -2.649318
v -44.815262 0.047320 2.682027
v -44.815262 0.047320 -2.647179
v -44.815262 4.185476 2.682027
v -44.815262 4.185476 -2.647179
v -44.201027 0.085321 -2.649773
v -44.248985 0.047320 -2.649571
vn 1.0000 -0.0000 -0.0000
vn -1.0000 -0.0000 -0.0000
vn -0.0000 -0.0000 1.0000
vn -0.0000 -0.0000 -1.0000
vn -0.0000 1.0000 -0.0000
vn -0.0000 -1.0000 -0.0000
vn -0.0000 -0.2609 -0.9654
vn -0.0045 1.0000 -0.0000
vn -0.6210 0.7838 -0.0000
vn -0.0042 -0.0000 -1.0000
vn 0.0042 -0.0000 1.0000
vt 0.000000 0.000000
vt 1.000000 0.000000
vt 0.000000 1.000000
vt 1.000000 1.000000
vt 0.000000 0.000000
vt 1.000000 0.000000
vt 0.000000 1.000000
vt 1.000000 1.000000
vt 0.000000 1.000000
vt 0.000000 0.000000
vt 1.000000 0.000000
vt 1.000000 1.000000
vt 0.000000 1.000000
vt 0.000000 0.000000
vt 1.000000 0.000000
vt 1.000000 1.000000
vt 0.000000 1.000000
vt 0.405279 0.000000
vt 0.625000 0.094048
vt 0.594721 0.000000
vt 0.625000 0.655952
vt 0.594721 0.000000
vt 0.375000 0.655952
vt 0.405279 0.000000
vt 0.375000 0.094048
vt 0.125000 0.655952
vt 0.401768 0.000000
vt 0.625000 0.193582
vt 0.598232 0.000000
vt 0.625000 0.556418
vt 0.401768 0.000000
vt 0.375000 0.193582
vt 0.125000 0.556418
vt 0.598231 0.000000
vt 0.375000 0.556418
vt 0.405279 0.000000
vt 0.625000 0.094048
vt 0.625000 0.655952
vt 0.594721 0.000000
vt 0.625000 0.193582
vt 0.401768 0.000000
vt 0.625000 0.556418
vt 0.598232 0.000000
vt 0.875000 0.655952
vt 0.405279 0.000000
vt 0.625000 0.094048
vt 0.625000 0.655952
vt 0.594721 0.000000
vt 0.875000 0.556418
vt 0.625000 0.193582
vt 0.401768 0.000000
vt 0.625000 0.556418
vt 0.598232 0.000000
vt 0.000000 0.345075
vt 0.625000 0.046155
vt 0.875000 0.703840
vt 0.000000 0.653158
vt 0.625000 0.710829
vt 0.000000 0.345075
vt 0.375000 0.046155
vt 0.125000 0.703840
vt 0.000000 0.653158
vt 0.375000 0.710829
vt 0.000000 0.350492
vt 0.625000 0.203471
vt 0.875000 0.546529
vt 0.000000 0.647566
vt 0.625000 0.553518
vt 0.000000 0.350492
vt 0.375000 0.203471
vt 0.125000 0.546529
vt 0.000000 0.647565
vt 0.375000 0.553518
vt 0.000000 0.651851
vt 0.000000 0.652433
s 0
usemtl Material.003
f 42/62/7 13/13/7 15/15/7 43/65/7
f 43/65/7 15/15/7 21/21/7 22/22/7 13/13/7 42/62/7 44/67/7 45/70/7
f 16/16/8 14/14/8 23/23/8 24/24/8
f 28/30/9 19/19/9 18/18/9 29/32/9
f 29/32/9 18/18/9 9/9/9 10/10/9 19/19/9 28/30/9 27/28/9 26/26/9
f 12/12/10 11/11/10 17/17/10 20/20/10
f 10/10/7 12/12/7 20/20/7 19/19/7
f 46/72/8 9/9/8 18/18/8 17/17/8 11/11/8 47/75/8 49/80/8 48/77/8
f 47/75/8 11/11/8 9/9/8 46/72/8
f 15/15/9 16/16/9 24/24/9 21/21/9
f 32/39/10 22/22/10 23/23/10 33/42/10
f 33/42/10 23/23/10 14/14/10 13/13/10 22/22/10 32/39/10 30/35/10 31/37/10
f 20/20/11 17/17/11 21/21/11 24/24/11
f 18/18/11 19/19/11 23/23/11 22/22/11
f 19/19/11 20/20/11 24/24/11 23/23/11
f 17/17/11 18/18/11 22/22/11 21/21/11
f 9/9/12 11/11/12 12/12/12 10/10/12
f 16/16/13 15/15/13 25/25/13
f 29/33/7 26/27/7 30/36/7 32/40/7
f 31/38/8 27/29/8 28/31/8 33/43/8
f 28/31/12 29/34/12 32/41/12 33/43/12
f 31/37/10 30/35/10 36/49/10 37/51/10
f 35/46/8 37/50/8 41/60/8 39/55/8
f 26/26/9 27/28/9 35/47/9 34/44/9
f 27/29/7 31/38/7 37/50/7 35/46/7
f 30/36/8 26/27/8 34/45/8 36/48/8
f 40/57/14 38/52/14 39/55/14 41/60/14
f 34/44/10 35/47/10 39/56/10 38/53/10
f 36/48/7 34/45/7 38/54/7 40/58/7
f 37/51/9 36/49/9 40/59/9 41/61/9
f 15/15/15 13/13/15 51/83/15 50/82/15 25/25/15
usemtl Material.006
f 48/78/16 44/68/16 42/63/16 46/73/16
f 47/76/17 43/66/17 45/71/17 49/81/17
f 49/81/12 45/71/12 44/69/12 48/79/12
f 46/74/11 42/64/11 43/66/11 47/76/11
