# Blender 3.3.0
# www.blender.org
mtllib Room14.mtl
o Room14
v -13.869937 0.055579 9.146517
v 13.910140 0.055579 9.146517
v -13.869937 0.055579 -9.108961
v 13.910140 0.055579 -9.108961
v -13.869937 0.110592 9.146517
v 13.910140 0.110592 9.146517
v -13.869937 0.110592 -9.108961
v 13.910140 0.110592 -9.108961
v -13.481894 0.110592 -8.853962
v -13.481894 0.110592 8.891518
v 13.522098 0.110592 8.891518
v 13.522098 0.110592 -8.853962
v -17.479897 5.055578 -11.481221
v -17.479897 5.055578 11.518778
v 17.520103 5.055578 11.518778
v 17.520103 5.055578 -11.481221
v -16.991003 5.055578 -11.159949
v -16.991003 5.055578 11.197505
v 17.031208 5.055578 11.197505
v 17.031208 5.055578 -11.159949
v -13.869937 0.191892 -9.108961
v -13.869937 0.191892 9.146517
v 13.910140 0.191892 9.146517
v 13.910140 0.191892 -9.108961
v -3.771253 0.262713 -9.181938
v 3.694620 0.262713 -9.181938
v -3.771253 4.391884 -11.162827
v 3.694620 4.391884 -11.162827
v -3.771253 0.237330 -8.913064
v 3.694620 0.237330 -8.913064
v 3.694620 4.391884 -10.850451
v -3.771253 4.391884 -10.850451
v -3.771253 0.191892 -7.938918
v -3.771253 0.191892 -8.431767
v 3.694620 0.191892 -8.431767
v 3.694620 0.191892 -7.938918
v -3.771253 0.213595 9.195930
v 3.694620 0.213595 9.195930
v 3.694620 4.391884 11.200383
v -3.771253 4.391884 11.200383
v -3.771253 0.213595 8.939550
v 3.694620 0.213595 8.939550
v -3.771253 4.391884 10.888006
v 3.694620 4.391884 10.888006
vn 1.0000 -0.0000 -0.0000
vn 0.8155 0.5787 -0.0000
vn -1.0000 -0.0000 -0.0000
vn -0.0000 -0.0000 -1.0000
vn -0.0000 -0.0000 1.0000
vn -0.0000 1.0000 -0.0000
vn -0.8155 0.5787 -0.0000
vn -0.0000 -0.4325 0.9016
vn -0.0000 -0.4325 -0.9016
vn 0.8077 -0.5896 -0.0000
vn -0.0000 0.4226 0.9063
vn -0.8077 -0.5896 -0.0000
vn -0.0000 0.4226 -0.9063
vn -0.0000 -1.0000 -0.0000
vn -0.0000 0.9956 0.0940
vt 0.000000 0.000000
vt 1.000000 0.000000
vt 0.000000 1.000000
vt 1.000000 1.000000
vt 0.000000 0.000000
vt 1.000000 0.000000
vt 0.000000 1.000000
vt 1.000000 1.000000
vt 0.000000 1.000000
vt 0.000000 0.000000
vt 1.000000 0.000000
vt 1.000000 1.000000
vt 0.000000 1.000000
vt 0.000000 0.000000
vt 1.000000 0.000000
vt 1.000000 1.000000
vt 0.000000 1.000000
vt 0.000000 0.000000
vt 1.000000 0.000000
vt 1.000000 1.000000
vt 0.000000 1.000000
vt 0.000000 0.000000
vt 1.000000 0.000000
vt 1.000000 1.000000
vt 0.363945 1.000000
vt 0.375000 0.668672
vt 0.631863 1.000000
vt 0.375000 0.081328
vt 0.125000 0.668672
vt 0.389636 1.000000
vt 0.625000 0.539066
vt 0.606962 1.000000
vt 0.625000 0.210934
vt 0.875000 0.539066
vt 0.359946 1.000000
vt 0.375000 0.686264
vt 0.635738 1.000000
vt 0.375000 0.063736
vt 0.125000 0.686264
vt 0.610028 1.000000
vt 0.625000 0.190496
vt 0.875000 0.559504
vt 0.386473 1.000000
vt 0.625000 0.559504
vt 0.363522 0.935907
vt 0.363523 0.962905
vt 0.632272 0.962905
vt 0.632272 0.935907
vt 0.363792 0.000000
vt 0.375000 0.569782
vt 0.632011 0.000000
vt 0.375000 0.180218
vt 0.125000 0.569782
vt 0.606962 0.000000
vt 0.625000 0.049070
vt 0.875000 0.700930
vt 0.389636 0.000000
vt 0.625000 0.700930
vt 0.359873 0.000000
vt 0.375000 0.553008
vt 0.635809 0.000000
vt 0.375000 0.196992
vt 0.125000 0.553008
vt 0.386473 0.000000
vt 0.625000 0.680491
vt 0.610028 0.000000
vt 0.625000 0.069509
vt 0.875000 0.680491
s 0
usemtl Material.001
f 1/1/1 3/3/1 21/21/1 22/22/1
f 10/10/2 9/9/2 17/17/2 18/18/2
f 2/2/1 4/4/1 8/8/1 6/6/1
f 3/3/3 1/1/3 5/5/3 7/7/3
f 4/4/4 3/3/4 7/7/4 8/8/4
f 1/1/5 2/2/5 6/6/5 5/5/5
f 10/10/6 11/11/6 12/12/6 9/9/6
f 12/12/7 11/11/7 19/19/7 20/20/7
f 38/51/8 6/6/8 15/15/8 14/14/8 5/5/8 37/49/8 40/57/8 39/54/8
f 37/49/8 5/5/8 6/6/8 38/51/8
f 27/30/9 25/25/9 7/7/9 13/13/9 16/16/9 8/8/9 26/27/9 28/32/9
f 26/27/9 8/8/9 7/7/9 25/25/9
f 16/16/6 13/13/6 17/17/6 20/20/6
f 14/14/6 15/15/6 19/19/6 18/18/6
f 15/15/6 16/16/6 20/20/6 19/19/6
f 13/13/6 14/14/6 18/18/6 17/17/6
f 6/6/10 8/8/10 16/16/10 15/15/10
f 29/35/11 9/9/11 12/12/11 30/37/11
f 31/40/11 30/37/11 12/12/11 20/20/11 17/17/11 9/9/11 29/35/11 32/43/11
f 7/7/12 5/5/12 14/14/12 13/13/12
f 41/59/13 10/10/13 18/18/13 19/19/13 11/11/13 42/61/13 44/66/13 43/64/13
f 11/11/13 10/10/13 41/59/13 42/61/13
f 36/48/14 35/47/14 24/24/14 23/23/14 22/22/14 21/21/14 34/46/14 33/45/14
f 21/21/14 24/24/14 35/47/14 34/46/14
f 3/3/5 4/4/5 24/24/5 21/21/5
f 2/2/4 1/1/4 22/22/4 23/23/4
f 4/4/3 2/2/3 23/23/3 24/24/3
usemtl 
f 28/33/3 26/28/3 30/38/3 31/41/3
f 29/36/1 25/26/1 27/31/1 32/44/1
f 30/39/15 26/29/15 25/26/15 29/36/15
f 27/31/14 28/34/14 31/42/14 32/44/14
f 42/62/3 38/52/3 39/55/3 44/67/3
f 43/65/1 40/58/1 37/50/1 41/60/1
f 41/60/6 37/50/6 38/53/6 42/63/6
f 39/56/14 40/58/14 43/65/14 44/68/14
o Piso1
v -14.022122 0.196303 9.152247
v 13.977878 0.196303 9.152247
v -14.022122 0.196303 -9.156293
v 13.977878 0.196303 -9.156293
v -14.022122 0.266727 9.152247
v 13.977878 0.266727 9.152247
v -14.022122 0.266727 -9.156293
v 13.977878 0.266727 -9.156293
vn -0.0000 -1.0000 -0.0000
vn -0.0000 1.0000 -0.0000
vn 1.0000 -0.0000 -0.0000
vn -1.0000 -0.0000 -0.0000
vn -0.0000 -0.0000 -1.0000
vn -0.0000 -0.0000 1.0000
vt 0.000000 0.000000
vt 1.000000 0.000000
vt 0.000000 1.000000
vt 1.000000 1.000000
vt 0.000000 0.000000
vt 1.000000 0.000000
vt 0.000000 1.000000
vt 1.000000 1.000000
s 0
usemtl Material.003
f 45/69/16 47/71/16 48/72/16 46/70/16
f 49/73/17 50/74/17 52/76/17 51/75/17
f 46/70/18 48/72/18 52/76/18 50/74/18
f 47/71/19 45/69/19 49/73/19 51/75/19
f 48/72/20 47/71/20 51/75/20 52/76/20
f 45/69/21 46/70/21 50/74/21 49/73/21
